<svg width="704" height="184" viewBox="0 0 704 184" fill="none" xmlns="http://www.w3.org/2000/svg">
<path d="M48.2669 137.312C47.9469 137.312 47.6509 137.208 47.3789 137C47.1229 136.792 46.9949 136.48 46.9949 136.064C46.9949 135.904 47.0029 135.72 47.0189 135.512C47.0509 135.288 47.1069 134.976 47.1869 134.576C46.2589 135.424 45.4109 136.096 44.6429 136.592C43.8749 137.072 43.1229 137.312 42.3869 137.312C41.9389 137.312 41.5469 137.184 41.2109 136.928C40.8909 136.672 40.7309 136.216 40.7309 135.56C40.7309 135.112 40.7869 134.616 40.8989 134.072C41.0269 133.512 41.1389 133 41.2349 132.536L42.3389 127.352L39.9629 127.232L40.0589 126.512L44.2349 125.312L44.5469 125.552L43.0349 132.344C42.9229 132.84 42.8349 133.28 42.7709 133.664C42.7069 134.032 42.6749 134.352 42.6749 134.624C42.6749 135.312 42.9789 135.656 43.5869 135.656C44.0989 135.656 44.6349 135.496 45.1949 135.176C45.7549 134.84 46.4909 134.312 47.4029 133.592L48.0509 130.4C48.2109 129.632 48.3629 128.864 48.5069 128.096C48.6669 127.328 48.8029 126.56 48.9149 125.792L50.4749 125.312L50.7869 125.552L49.0829 133.76C49.0189 134.064 48.9629 134.336 48.9149 134.576C48.8829 134.816 48.8669 135 48.8669 135.128C48.8669 135.288 48.9229 135.416 49.0349 135.512C49.1469 135.608 49.2749 135.656 49.4189 135.656C49.7389 135.656 50.0909 135.512 50.4749 135.224C50.8589 134.936 51.2989 134.504 51.7949 133.928L52.3709 134.384C52.0029 134.864 51.6109 135.328 51.1949 135.776C50.7789 136.224 50.3309 136.592 49.8509 136.88C49.3709 137.168 48.8429 137.312 48.2669 137.312ZM52.9533 140.816C53.2253 139.584 53.4893 138.328 53.7453 137.048C54.0013 135.768 54.2573 134.488 54.5133 133.208L55.6173 127.448C55.8733 126.184 56.1213 124.92 56.3613 123.656C56.6013 122.376 56.8253 121.104 57.0333 119.84H61.5693L61.3773 120.8L58.5933 121.112C58.3853 122.136 58.1693 123.184 57.9453 124.256C57.7373 125.312 57.5293 126.376 57.3213 127.448L56.2173 133.208C56.0093 134.248 55.8013 135.304 55.5933 136.376C55.3853 137.432 55.1933 138.488 55.0173 139.544L57.6813 139.856L57.4893 140.816H52.9533ZM62.318 134.336L63.926 126.8H61.478L61.646 125.84L64.238 125.6L65.366 122.384H66.59L65.894 125.624H68.942L68.75 126.92L65.654 126.824L64.19 133.712C64.046 134.352 63.974 134.816 63.974 135.104C63.974 135.28 64.03 135.416 64.142 135.512C64.27 135.608 64.406 135.656 64.55 135.656C65.158 135.656 65.942 135.08 66.902 133.928L67.502 134.384C67.166 134.864 66.782 135.328 66.35 135.776C65.918 136.224 65.454 136.592 64.958 136.88C64.462 137.168 63.942 137.312 63.398 137.312C63.046 137.312 62.734 137.208 62.462 137C62.206 136.792 62.078 136.488 62.078 136.088C62.078 135.912 62.094 135.704 62.126 135.464C62.158 135.208 62.222 134.832 62.318 134.336ZM75.8324 119.84C75.5604 121.072 75.2964 122.328 75.0404 123.608C74.7844 124.888 74.5284 126.168 74.2724 127.448L73.1684 133.208C72.9124 134.472 72.6644 135.736 72.4244 137C72.2004 138.28 71.9764 139.552 71.7524 140.816H67.2164L67.4084 139.856L70.1924 139.544C70.4164 138.504 70.6324 137.456 70.8404 136.4C71.0484 135.344 71.2564 134.28 71.4644 133.208L72.5684 127.448C72.7764 126.408 72.9844 125.36 73.1924 124.304C73.4004 123.232 73.5924 122.168 73.7684 121.112L71.1044 120.8L71.2964 119.84H75.8324Z" fill="black"/>
<path d="M627.571 142.368C627.635 142.016 627.787 141.744 628.027 141.552C628.251 141.376 628.531 141.288 628.867 141.288C629.219 141.288 629.539 141.36 629.827 141.504C630.131 141.664 630.459 141.872 630.811 142.128L630.883 142.176C631.667 141.68 632.387 141.096 633.043 140.424C633.267 140.2 633.483 139.968 633.691 139.728C633.899 139.488 634.107 139.24 634.315 138.984C634.251 138.04 634.171 137.2 634.075 136.464C633.995 135.712 633.899 134.936 633.787 134.136C633.691 133.336 633.571 132.408 633.427 131.352C633.315 130.328 633.211 129.584 633.115 129.12C633.035 128.64 632.947 128.328 632.851 128.184C632.755 128.04 632.635 127.968 632.491 127.968C632.283 127.968 632.067 128.072 631.843 128.28C631.635 128.472 631.315 128.896 630.883 129.552L630.331 129.168C630.811 128.144 631.315 127.416 631.843 126.984C632.371 126.536 632.883 126.312 633.379 126.312C633.683 126.312 633.939 126.392 634.147 126.552C634.371 126.712 634.555 127.024 634.699 127.488C634.859 127.936 634.987 128.608 635.083 129.504C635.227 130.896 635.339 132.208 635.419 133.44C635.515 134.672 635.587 135.848 635.635 136.968C636.195 135.944 636.667 135.04 637.051 134.256C637.451 133.472 637.795 132.704 638.083 131.952C638.387 131.184 638.667 130.344 638.923 129.432C639.195 128.504 639.419 127.808 639.595 127.344C639.787 126.88 639.971 126.568 640.147 126.408C640.323 126.248 640.523 126.168 640.747 126.168C641.019 126.168 641.235 126.248 641.395 126.408C641.555 126.552 641.635 126.744 641.635 126.984C641.635 127.288 641.595 127.568 641.515 127.824C641.435 128.08 641.275 128.448 641.035 128.928C640.779 129.44 640.507 129.976 640.219 130.536C639.947 131.08 639.579 131.76 639.115 132.576C638.667 133.36 638.179 134.216 637.651 135.144C637.139 136.056 636.555 137.008 635.899 138C635.595 138.464 635.267 138.944 634.915 139.44C634.563 139.952 634.139 140.48 633.643 141.024C632.859 141.872 632.107 142.536 631.387 143.016C630.683 143.512 629.979 143.76 629.275 143.76C628.747 143.76 628.339 143.624 628.051 143.352C627.763 143.096 627.603 142.768 627.571 142.368ZM641.793 141.816C642.065 140.584 642.329 139.328 642.585 138.048C642.841 136.768 643.097 135.488 643.353 134.208L644.457 128.448C644.713 127.184 644.961 125.92 645.201 124.656C645.441 123.376 645.665 122.104 645.873 120.84H650.409L650.217 121.8L647.433 122.112C647.225 123.136 647.009 124.184 646.785 125.256C646.577 126.312 646.369 127.376 646.161 128.448L645.057 134.208C644.849 135.248 644.641 136.304 644.433 137.376C644.225 138.432 644.033 139.488 643.857 140.544L646.521 140.856L646.329 141.816H641.793ZM651.158 135.336L652.766 127.8H650.318L650.486 126.84L653.078 126.6L654.206 123.384H655.43L654.734 126.624H657.782L657.59 127.92L654.494 127.824L653.03 134.712C652.886 135.352 652.814 135.816 652.814 136.104C652.814 136.28 652.87 136.416 652.982 136.512C653.11 136.608 653.246 136.656 653.39 136.656C653.998 136.656 654.782 136.08 655.742 134.928L656.342 135.384C656.006 135.864 655.622 136.328 655.19 136.776C654.758 137.224 654.294 137.592 653.798 137.88C653.302 138.168 652.782 138.312 652.238 138.312C651.886 138.312 651.574 138.208 651.302 138C651.046 137.792 650.918 137.488 650.918 137.088C650.918 136.912 650.934 136.704 650.966 136.464C650.998 136.208 651.062 135.832 651.158 135.336ZM664.672 120.84C664.4 122.072 664.136 123.328 663.88 124.608C663.624 125.888 663.368 127.168 663.112 128.448L662.008 134.208C661.752 135.472 661.504 136.736 661.264 138C661.04 139.28 660.816 140.552 660.592 141.816H656.056L656.248 140.856L659.032 140.544C659.256 139.504 659.472 138.456 659.68 137.4C659.888 136.344 660.096 135.28 660.304 134.208L661.408 128.448C661.616 127.408 661.824 126.36 662.032 125.304C662.24 124.232 662.432 123.168 662.608 122.112L659.944 121.8L660.136 120.84H664.672Z" fill="black"/>
<circle cx="214.5" cy="132.5" r="49.5" stroke="black" stroke-width="4"/>
<circle cx="496.5" cy="132.5" r="49.5" stroke="black" stroke-width="4"/>
<path d="M170.875 70V54.256H175.795C176.867 54.256 177.819 54.4 178.651 54.688C179.483 54.96 180.131 55.424 180.595 56.08C181.075 56.72 181.315 57.584 181.315 58.672C181.315 59.888 180.995 60.872 180.355 61.624C179.715 62.36 178.851 62.864 177.763 63.136L181.771 70H179.515L175.723 63.352H172.867V70H170.875ZM172.867 61.72H175.507C176.739 61.72 177.683 61.472 178.339 60.976C178.995 60.464 179.323 59.696 179.323 58.672C179.323 57.632 178.995 56.904 178.339 56.488C177.683 56.072 176.739 55.864 175.507 55.864H172.867V61.72ZM188.841 70.288C187.801 70.288 186.857 70.048 186.009 69.568C185.161 69.072 184.489 68.368 183.993 67.456C183.497 66.544 183.249 65.456 183.249 64.192C183.249 62.912 183.497 61.816 183.993 60.904C184.505 59.992 185.161 59.288 185.961 58.792C186.761 58.296 187.601 58.048 188.481 58.048C189.969 58.048 191.113 58.544 191.913 59.536C192.729 60.528 193.137 61.856 193.137 63.52C193.137 63.728 193.129 63.936 193.113 64.144C193.113 64.336 193.097 64.504 193.065 64.648H185.193C185.273 65.88 185.657 66.864 186.345 67.6C187.049 68.336 187.961 68.704 189.081 68.704C189.641 68.704 190.153 68.624 190.617 68.464C191.097 68.288 191.553 68.064 191.985 67.792L192.681 69.088C192.185 69.408 191.617 69.688 190.977 69.928C190.353 70.168 189.641 70.288 188.841 70.288ZM185.169 63.232H191.409C191.409 62.048 191.153 61.152 190.641 60.544C190.145 59.92 189.441 59.608 188.529 59.608C187.713 59.608 186.977 59.928 186.321 60.568C185.681 61.192 185.297 62.08 185.169 63.232ZM199.067 70.288C198.235 70.288 197.443 70.136 196.691 69.832C195.939 69.512 195.283 69.128 194.723 68.68L195.707 67.36C196.219 67.76 196.747 68.096 197.291 68.368C197.835 68.624 198.451 68.752 199.139 68.752C199.907 68.752 200.483 68.576 200.867 68.224C201.251 67.856 201.443 67.424 201.443 66.928C201.443 66.528 201.307 66.192 201.035 65.92C200.779 65.648 200.443 65.424 200.027 65.248C199.627 65.056 199.211 64.88 198.779 64.72C198.235 64.512 197.699 64.28 197.171 64.024C196.643 63.752 196.211 63.408 195.875 62.992C195.539 62.56 195.371 62.016 195.371 61.36C195.371 60.416 195.723 59.632 196.427 59.008C197.147 58.368 198.139 58.048 199.403 58.048C200.123 58.048 200.795 58.176 201.419 58.432C202.043 58.688 202.579 59 203.027 59.368L202.067 60.616C201.667 60.312 201.251 60.064 200.819 59.872C200.387 59.68 199.915 59.584 199.403 59.584C198.667 59.584 198.123 59.752 197.771 60.088C197.435 60.424 197.267 60.816 197.267 61.264C197.267 61.632 197.387 61.936 197.627 62.176C197.867 62.4 198.179 62.6 198.563 62.776C198.947 62.936 199.355 63.104 199.787 63.28C200.347 63.488 200.899 63.728 201.443 64C201.987 64.256 202.435 64.608 202.787 65.056C203.155 65.488 203.339 66.072 203.339 66.808C203.339 67.432 203.171 68.008 202.835 68.536C202.515 69.064 202.035 69.488 201.395 69.808C200.771 70.128 199.995 70.288 199.067 70.288ZM210.801 70.288C209.761 70.288 208.817 70.048 207.969 69.568C207.121 69.072 206.449 68.368 205.953 67.456C205.457 66.544 205.209 65.456 205.209 64.192C205.209 62.912 205.457 61.816 205.953 60.904C206.465 59.992 207.121 59.288 207.921 58.792C208.721 58.296 209.561 58.048 210.441 58.048C211.929 58.048 213.073 58.544 213.873 59.536C214.689 60.528 215.097 61.856 215.097 63.52C215.097 63.728 215.089 63.936 215.073 64.144C215.073 64.336 215.057 64.504 215.025 64.648H207.153C207.233 65.88 207.617 66.864 208.305 67.6C209.009 68.336 209.921 68.704 211.041 68.704C211.601 68.704 212.113 68.624 212.577 68.464C213.057 68.288 213.513 68.064 213.945 67.792L214.641 69.088C214.145 69.408 213.577 69.688 212.937 69.928C212.313 70.168 211.601 70.288 210.801 70.288ZM207.129 63.232H213.369C213.369 62.048 213.113 61.152 212.601 60.544C212.105 59.92 211.401 59.608 210.489 59.608C209.673 59.608 208.937 59.928 208.281 60.568C207.641 61.192 207.257 62.08 207.129 63.232ZM217.98 70V58.336H219.612L219.78 60.448H219.852C220.252 59.712 220.74 59.128 221.316 58.696C221.892 58.264 222.508 58.048 223.164 58.048C223.628 58.048 224.044 58.128 224.412 58.288L224.028 60.016C223.836 59.952 223.66 59.904 223.5 59.872C223.34 59.84 223.14 59.824 222.9 59.824C222.404 59.824 221.884 60.024 221.34 60.424C220.812 60.824 220.348 61.52 219.948 62.512V70H217.98ZM229.429 70L225.229 58.336H227.269L229.477 64.96C229.653 65.536 229.829 66.112 230.005 66.688C230.197 67.264 230.381 67.832 230.557 68.392H230.653C230.829 67.832 231.005 67.264 231.181 66.688C231.373 66.112 231.549 65.536 231.709 64.96L233.917 58.336H235.861L231.733 70H229.429ZM242.555 70.288C241.611 70.288 240.723 70.048 239.891 69.568C239.075 69.088 238.411 68.392 237.899 67.48C237.403 66.568 237.155 65.472 237.155 64.192C237.155 62.88 237.403 61.768 237.899 60.856C238.411 59.944 239.075 59.248 239.891 58.768C240.723 58.288 241.611 58.048 242.555 58.048C243.515 58.048 244.403 58.288 245.219 58.768C246.035 59.248 246.691 59.944 247.187 60.856C247.699 61.768 247.955 62.88 247.955 64.192C247.955 65.472 247.699 66.568 247.187 67.48C246.691 68.392 246.035 69.088 245.219 69.568C244.403 70.048 243.515 70.288 242.555 70.288ZM242.555 68.656C243.563 68.656 244.371 68.248 244.979 67.432C245.603 66.6 245.915 65.52 245.915 64.192C245.915 62.848 245.603 61.76 244.979 60.928C244.371 60.096 243.563 59.68 242.555 59.68C241.563 59.68 240.755 60.096 240.131 60.928C239.507 61.76 239.195 62.848 239.195 64.192C239.195 65.52 239.507 66.6 240.131 67.432C240.755 68.248 241.563 68.656 242.555 68.656ZM251.027 70V58.336H252.995V70H251.027ZM252.035 55.936C251.651 55.936 251.331 55.824 251.075 55.6C250.835 55.36 250.715 55.04 250.715 54.64C250.715 54.256 250.835 53.944 251.075 53.704C251.331 53.464 251.651 53.344 252.035 53.344C252.419 53.344 252.731 53.464 252.971 53.704C253.227 53.944 253.355 54.256 253.355 54.64C253.355 55.04 253.227 55.36 252.971 55.6C252.731 55.824 252.419 55.936 252.035 55.936ZM256.933 70V58.336H258.565L258.733 60.448H258.805C259.205 59.712 259.693 59.128 260.269 58.696C260.845 58.264 261.461 58.048 262.117 58.048C262.581 58.048 262.997 58.128 263.365 58.288L262.981 60.016C262.789 59.952 262.613 59.904 262.453 59.872C262.293 59.84 262.093 59.824 261.853 59.824C261.357 59.824 260.837 60.024 260.293 60.424C259.765 60.824 259.301 61.52 258.901 62.512V70H256.933Z" fill="black"/>
<path d="M472.883 72V56.256H477.803C478.875 56.256 479.827 56.4 480.659 56.688C481.491 56.96 482.139 57.424 482.603 58.08C483.083 58.72 483.323 59.584 483.323 60.672C483.323 61.888 483.003 62.872 482.363 63.624C481.723 64.36 480.859 64.864 479.771 65.136L483.779 72H481.523L477.731 65.352H474.875V72H472.883ZM474.875 63.72H477.515C478.747 63.72 479.691 63.472 480.347 62.976C481.003 62.464 481.331 61.696 481.331 60.672C481.331 59.632 481.003 58.904 480.347 58.488C479.691 58.072 478.747 57.864 477.515 57.864H474.875V63.72ZM486.355 72V60.336H488.323V72H486.355ZM487.363 57.936C486.979 57.936 486.659 57.824 486.403 57.6C486.163 57.36 486.043 57.04 486.043 56.64C486.043 56.256 486.163 55.944 486.403 55.704C486.659 55.464 486.979 55.344 487.363 55.344C487.747 55.344 488.059 55.464 488.299 55.704C488.555 55.944 488.683 56.256 488.683 56.64C488.683 57.04 488.555 57.36 488.299 57.6C488.059 57.824 487.747 57.936 487.363 57.936ZM496.245 72.288C494.789 72.288 493.621 71.76 492.741 70.704C491.861 69.632 491.421 68.128 491.421 66.192C491.421 64.928 491.653 63.84 492.117 62.928C492.597 62 493.221 61.288 493.989 60.792C494.773 60.296 495.605 60.048 496.485 60.048C497.157 60.048 497.741 60.168 498.237 60.408C498.733 60.648 499.237 60.976 499.749 61.392L499.653 59.4V54.912H501.645V72H500.013L499.845 70.632H499.773C499.325 71.08 498.797 71.472 498.189 71.808C497.581 72.128 496.933 72.288 496.245 72.288ZM496.677 70.632C497.701 70.632 498.693 70.096 499.653 69.024V62.928C499.157 62.48 498.677 62.168 498.213 61.992C497.765 61.8 497.301 61.704 496.821 61.704C496.197 61.704 495.629 61.896 495.117 62.28C494.621 62.648 494.221 63.168 493.917 63.84C493.613 64.496 493.461 65.272 493.461 66.168C493.461 67.56 493.741 68.656 494.301 69.456C494.861 70.24 495.653 70.632 496.677 70.632ZM509.509 77.376C508.085 77.376 506.925 77.104 506.029 76.56C505.133 76.016 504.685 75.24 504.685 74.232C504.685 73.736 504.837 73.256 505.141 72.792C505.445 72.344 505.861 71.944 506.389 71.592V71.496C506.101 71.32 505.853 71.072 505.645 70.752C505.453 70.432 505.357 70.048 505.357 69.6C505.357 69.104 505.493 68.672 505.765 68.304C506.037 67.936 506.325 67.648 506.629 67.44V67.344C506.245 67.024 505.893 66.592 505.573 66.048C505.269 65.504 505.117 64.888 505.117 64.2C505.117 63.352 505.317 62.616 505.717 61.992C506.117 61.368 506.653 60.888 507.325 60.552C507.997 60.216 508.725 60.048 509.509 60.048C509.829 60.048 510.133 60.08 510.421 60.144C510.709 60.192 510.957 60.256 511.165 60.336H515.221V61.848H512.821C513.093 62.104 513.317 62.448 513.493 62.88C513.685 63.296 513.781 63.752 513.781 64.248C513.781 65.08 513.589 65.8 513.205 66.408C512.821 67.016 512.309 67.488 511.669 67.824C511.029 68.144 510.309 68.304 509.509 68.304C508.885 68.304 508.301 68.168 507.757 67.896C507.549 68.072 507.373 68.272 507.229 68.496C507.085 68.704 507.013 68.968 507.013 69.288C507.013 69.656 507.157 69.96 507.445 70.2C507.749 70.44 508.293 70.56 509.077 70.56H511.333C512.693 70.56 513.709 70.784 514.381 71.232C515.069 71.664 515.413 72.368 515.413 73.344C515.413 74.064 515.173 74.728 514.693 75.336C514.213 75.944 513.533 76.432 512.653 76.8C511.773 77.184 510.725 77.376 509.509 77.376ZM509.509 66.984C510.181 66.984 510.757 66.736 511.237 66.24C511.733 65.728 511.981 65.048 511.981 64.2C511.981 63.352 511.741 62.688 511.261 62.208C510.781 61.728 510.197 61.488 509.509 61.488C508.821 61.488 508.237 61.728 507.757 62.208C507.277 62.688 507.037 63.352 507.037 64.2C507.037 65.048 507.277 65.728 507.757 66.24C508.253 66.736 508.837 66.984 509.509 66.984ZM509.797 76.008C510.917 76.008 511.813 75.76 512.485 75.264C513.157 74.784 513.493 74.24 513.493 73.632C513.493 73.088 513.285 72.712 512.869 72.504C512.469 72.296 511.893 72.192 511.141 72.192H509.125C508.901 72.192 508.653 72.176 508.381 72.144C508.125 72.112 507.869 72.064 507.613 72C507.197 72.304 506.893 72.624 506.701 72.96C506.509 73.296 506.413 73.632 506.413 73.968C506.413 74.592 506.709 75.088 507.301 75.456C507.909 75.824 508.741 76.008 509.797 76.008ZM522.067 72.288C521.027 72.288 520.083 72.048 519.235 71.568C518.387 71.072 517.715 70.368 517.219 69.456C516.723 68.544 516.475 67.456 516.475 66.192C516.475 64.912 516.723 63.816 517.219 62.904C517.731 61.992 518.387 61.288 519.187 60.792C519.987 60.296 520.827 60.048 521.707 60.048C523.195 60.048 524.339 60.544 525.139 61.536C525.955 62.528 526.363 63.856 526.363 65.52C526.363 65.728 526.355 65.936 526.339 66.144C526.339 66.336 526.323 66.504 526.291 66.648H518.419C518.499 67.88 518.883 68.864 519.571 69.6C520.275 70.336 521.187 70.704 522.307 70.704C522.867 70.704 523.379 70.624 523.843 70.464C524.323 70.288 524.779 70.064 525.211 69.792L525.907 71.088C525.411 71.408 524.843 71.688 524.203 71.928C523.579 72.168 522.867 72.288 522.067 72.288ZM518.395 65.232H524.635C524.635 64.048 524.379 63.152 523.867 62.544C523.371 61.92 522.667 61.608 521.755 61.608C520.939 61.608 520.203 61.928 519.547 62.568C518.907 63.192 518.523 64.08 518.395 65.232Z" fill="black"/>
<path d="M326.5 133L311.5 124.34V141.66L326.5 133ZM444 133L429 124.34V141.66L444 133ZM266 134.5H313V131.5H266V134.5ZM383.5 134.5H430.5V131.5H383.5V134.5Z" fill="black"/>
<path d="M163 133L148 124.34L148 141.66L163 133ZM88 134.5L149.5 134.5L149.5 131.5L88 131.5L88 134.5Z" fill="black"/>
<path d="M620 133L605 124.34L605 141.66L620 133ZM545 134.5L606.5 134.5L606.5 131.5L545 131.5L545 134.5Z" fill="black"/>
<path d="M336.903 136.608C336.967 136.32 337.103 136.104 337.311 135.96C337.535 135.816 337.743 135.744 337.935 135.744C338.191 135.744 338.407 135.8 338.583 135.912C338.759 136.008 338.951 136.24 339.159 136.608L339.423 137.088C339.567 136.976 339.719 136.832 339.879 136.656C340.455 136.032 340.991 135.392 341.487 134.736C341.983 134.08 342.479 133.384 342.975 132.648L341.967 129.216C341.823 128.72 341.687 128.384 341.559 128.208C341.447 128.016 341.263 127.92 341.007 127.92C340.847 127.92 340.607 128.016 340.287 128.208C339.983 128.4 339.623 128.848 339.207 129.552L338.655 129.144C339.103 128.152 339.591 127.432 340.119 126.984C340.647 126.536 341.159 126.312 341.655 126.312C342.119 126.312 342.487 126.464 342.759 126.768C343.047 127.072 343.295 127.608 343.503 128.376L344.247 131.04C344.759 130.224 345.239 129.504 345.687 128.88C346.151 128.256 346.535 127.76 346.839 127.392C347.191 126.976 347.511 126.696 347.799 126.552C348.087 126.392 348.423 126.312 348.807 126.312C349.127 126.312 349.447 126.416 349.767 126.624C350.103 126.832 350.319 127.152 350.415 127.584C350.415 127.92 350.319 128.2 350.127 128.424C349.935 128.632 349.703 128.736 349.431 128.736C349.191 128.736 348.967 128.688 348.759 128.592C348.551 128.48 348.335 128.256 348.111 127.92L347.967 127.728C347.903 127.776 347.847 127.832 347.799 127.896C347.751 127.96 347.695 128.024 347.631 128.088C347.071 128.712 346.535 129.352 346.023 130.008C345.511 130.664 345.015 131.336 344.535 132.024L345.375 135.072C345.551 135.728 345.735 136.16 345.927 136.368C346.135 136.56 346.407 136.656 346.743 136.656C347.063 136.656 347.415 136.504 347.799 136.2C348.199 135.896 348.615 135.472 349.047 134.928L349.647 135.384C349.071 136.232 348.447 136.936 347.775 137.496C347.103 138.04 346.447 138.312 345.807 138.312C345.455 138.312 345.143 138.2 344.871 137.976C344.599 137.736 344.359 137.272 344.151 136.584L343.263 133.608C342.767 134.408 342.295 135.136 341.847 135.792C341.399 136.432 340.967 137 340.551 137.496C340.295 137.8 340.031 138.008 339.759 138.12C339.487 138.248 339.191 138.312 338.871 138.312C338.391 138.312 337.951 138.176 337.551 137.904C337.167 137.616 336.951 137.184 336.903 136.608ZM350.309 141.816C350.581 140.584 350.845 139.328 351.101 138.048C351.357 136.768 351.613 135.488 351.869 134.208L352.973 128.448C353.229 127.184 353.477 125.92 353.717 124.656C353.957 123.376 354.181 122.104 354.389 120.84H358.925L358.733 121.8L355.949 122.112C355.741 123.136 355.525 124.184 355.301 125.256C355.093 126.312 354.885 127.376 354.677 128.448L353.573 134.208C353.365 135.248 353.157 136.304 352.949 137.376C352.741 138.432 352.549 139.488 352.373 140.544L355.037 140.856L354.845 141.816H350.309ZM359.673 135.336L361.281 127.8H358.833L359.001 126.84L361.593 126.6L362.721 123.384H363.945L363.249 126.624H366.297L366.105 127.92L363.009 127.824L361.545 134.712C361.401 135.352 361.329 135.816 361.329 136.104C361.329 136.28 361.385 136.416 361.497 136.512C361.625 136.608 361.761 136.656 361.905 136.656C362.513 136.656 363.297 136.08 364.257 134.928L364.857 135.384C364.521 135.864 364.137 136.328 363.705 136.776C363.273 137.224 362.809 137.592 362.313 137.88C361.817 138.168 361.297 138.312 360.753 138.312C360.401 138.312 360.089 138.208 359.817 138C359.561 137.792 359.433 137.488 359.433 137.088C359.433 136.912 359.449 136.704 359.481 136.464C359.513 136.208 359.577 135.832 359.673 135.336ZM373.188 120.84C372.916 122.072 372.652 123.328 372.396 124.608C372.14 125.888 371.884 127.168 371.628 128.448L370.524 134.208C370.268 135.472 370.02 136.736 369.78 138C369.556 139.28 369.332 140.552 369.108 141.816H364.572L364.764 140.856L367.548 140.544C367.772 139.504 367.988 138.456 368.196 137.4C368.404 136.344 368.612 135.28 368.82 134.208L369.924 128.448C370.132 127.408 370.34 126.36 370.548 125.304C370.756 124.232 370.948 123.168 371.124 122.112L368.46 121.8L368.652 120.84H373.188Z" fill="black"/>
<path d="M528 12.4997L527.521 13.3774L528 12.4997ZM252.01 99.3607C251.933 99.9077 252.314 100.413 252.861 100.49L261.773 101.744C262.32 101.82 262.826 101.439 262.903 100.893C262.979 100.346 262.598 99.8399 262.052 99.763L254.13 98.649L255.244 90.7269C255.32 90.18 254.939 89.6743 254.393 89.5974C253.846 89.5205 253.34 89.9015 253.263 90.4484L252.01 99.3607ZM570.5 132C571.499 132.049 571.499 132.049 571.499 132.048C571.499 132.047 571.499 132.046 571.499 132.044C571.499 132.041 571.499 132.036 571.5 132.03C571.5 132.018 571.501 132.001 571.502 131.977C571.504 131.931 571.507 131.862 571.511 131.771C571.519 131.59 571.529 131.323 571.54 130.973C571.563 130.274 571.59 129.248 571.608 127.935C571.644 125.307 571.641 121.529 571.491 116.916C571.19 107.693 570.296 95.119 567.92 81.7306C565.546 68.3473 561.684 54.1131 555.432 41.5874C549.179 29.0616 540.505 18.1875 528.479 11.622L527.521 13.3774C539.076 19.6859 547.505 30.1863 553.642 42.4807C559.78 54.7752 563.596 68.8067 565.951 82.08C568.305 95.348 569.193 107.822 569.492 116.981C569.641 121.56 569.643 125.307 569.608 127.908C569.591 129.208 569.564 130.221 569.541 130.908C569.53 131.251 569.52 131.513 569.513 131.689C569.509 131.776 569.506 131.842 569.504 131.886C569.503 131.908 569.502 131.924 569.502 131.935C569.502 131.94 569.502 131.944 569.501 131.947C569.501 131.948 569.501 131.949 569.501 131.95C569.501 131.95 569.501 131.95 570.5 132ZM528.479 11.622C505.064 -1.16134 476.045 -2.00341 445.819 3.80653C415.58 9.61898 384.006 22.1131 355.372 36.1644C326.731 50.219 300.991 65.851 282.415 77.967C273.125 84.0256 265.624 89.2068 260.445 92.8743C257.855 94.708 255.845 96.1635 254.482 97.1612C253.8 97.66 253.28 98.0444 252.93 98.3044C252.755 98.4344 252.623 98.5333 252.534 98.5999C252.489 98.6331 252.455 98.6583 252.433 98.6753C252.422 98.6838 252.413 98.6902 252.407 98.6945C252.404 98.6967 252.402 98.6984 252.401 98.6995C252.399 98.7007 252.398 98.7013 253 99.5C253.602 100.299 253.602 100.298 253.604 100.297C253.605 100.296 253.607 100.295 253.609 100.293C253.615 100.289 253.623 100.283 253.634 100.275C253.655 100.258 253.688 100.234 253.732 100.201C253.819 100.136 253.95 100.038 254.123 99.9098C254.469 99.6526 254.985 99.271 255.663 98.7751C257.018 97.7832 259.019 96.3339 261.6 94.5065C266.762 90.8517 274.242 85.6851 283.507 79.6422C302.04 67.5548 327.707 51.9679 356.253 37.9599C384.806 23.9485 416.201 11.5362 446.197 5.77057C476.205 0.00238336 504.686 0.910416 527.521 13.3774L528.479 11.622Z" fill="black"/>
</svg>
